<svg width="22" height="21" viewBox="0 0 22 21" fill="none" xmlns="http://www.w3.org/2000/svg">
<path d="M7.72167 20.703C7.72167 20.703 7.78167 8.49399 7.72167 7.23499H12.2427V9.13499C12.6549 8.42845 13.2522 7.84784 13.9702 7.45575C14.6881 7.06366 15.4994 6.87496 16.3167 6.90999C19.2917 6.90999 21.5217 8.83599 21.5217 12.974V20.698H17.0017V13.494C17.0017 11.683 16.3477 10.448 14.7107 10.448C14.2026 10.4497 13.7073 10.6079 13.2922 10.9009C12.8772 11.194 12.5624 11.6078 12.3907 12.086C12.2754 12.4383 12.2253 12.8087 12.2427 13.179V20.703H7.72167ZM0.698675 20.703V7.22899H5.21868V20.702L0.698675 20.703ZM2.93167 5.39099C2.60959 5.41337 2.28636 5.36875 1.98239 5.25993C1.67842 5.15111 1.4003 4.98046 1.1656 4.75875C0.930893 4.53705 0.744696 4.26909 0.618758 3.9718C0.49282 3.67452 0.429875 3.35435 0.433897 3.03151C0.437919 2.70867 0.508819 2.39018 0.642124 2.09612C0.775428 1.80206 0.968242 1.53883 1.2084 1.32303C1.44855 1.10724 1.73083 0.943572 2.03742 0.842359C2.34401 0.741147 2.66825 0.704587 2.98968 0.734988C3.31274 0.708802 3.63771 0.750103 3.94396 0.856267C4.2502 0.962432 4.53101 1.13114 4.76854 1.35167C5.00608 1.57219 5.19514 1.83972 5.32372 2.13725C5.45231 2.43477 5.51759 2.75579 5.51543 3.07991C5.51328 3.40402 5.44372 3.72415 5.31119 4.01993C5.17866 4.31572 4.98605 4.58071 4.7456 4.79805C4.50515 5.0154 4.22212 5.18035 3.91449 5.28243C3.60686 5.3845 3.28136 5.42147 2.95867 5.39099H2.93167Z" fill="black"/>
</svg>
