<svg width="18" height="22" viewBox="0 0 18 22" fill="none" xmlns="http://www.w3.org/2000/svg">
<path d="M7.51378 14.1328C6.95778 17.0488 6.27779 19.8448 4.26579 21.3058C3.64479 16.8978 5.17779 13.5868 5.88979 10.0728C4.67579 8.02879 6.03578 3.91579 8.59678 4.92979C11.7478 6.17579 5.86778 12.5298 9.81479 13.3208C13.9358 14.1488 15.6148 6.17079 13.0628 3.57679C9.37079 -0.169213 2.31579 3.49179 3.18279 8.85479C3.39378 10.1658 4.74879 10.5638 3.72379 12.3738C1.36079 11.8498 0.655784 9.98679 0.746784 7.50179C0.892784 3.43479 4.40078 0.587786 7.91978 0.193786C12.3698 -0.306214 16.5458 1.82679 17.1198 6.01279C17.7688 10.7378 15.1108 15.8538 10.3528 15.4868C9.06478 15.3858 8.52478 14.7478 7.51378 14.1328Z" fill="black"/>
</svg>
